<?xml version="1.0" standalone="no"?>
<!DOCTYPE svg PUBLIC "-//W3C//DTD SVG 20010904//EN"
 "http://www.w3.org/TR/2001/REC-SVG-20010904/DTD/svg10.dtd">
<svg version="1.0" xmlns="http://www.w3.org/2000/svg"
 width="501.000000pt" height="501.000000pt" viewBox="0 0 501.000000 501.000000"
 preserveAspectRatio="xMidYMid meet">
<metadata>
Created by potrace 1.11, written by Peter Selinger 2001-2013
</metadata>
<g transform="translate(0.000000,501.000000) scale(0.100000,-0.100000)"
fill="#000000" stroke="none">
<path d="M630 2505 l0 -2505 1875 0 1875 0 0 2505 0 2505 -1875 0 -1875 0 0
-2505z m2450 1453 c0 -454 -4 -494 -53 -615 -92 -227 -342 -425 -536 -425
-124 0 -262 70 -386 196 -123 126 -181 242 -204 409 -12 85 -15 839 -4 850 3
4 271 7 595 7 l588 0 0 -422z m-1011 -1322 c20 -24 -4 -58 -37 -54 -27 3 -39
25 -28 54 7 18 50 18 65 0z m1076 -21 c0 -27 -3 -30 -30 -30 -21 0 -31 5 -33
18 -6 33 6 49 35 45 24 -3 28 -8 28 -33z m-1725 -97 c0 -136 9 -167 52 -182
40 -14 75 5 87 49 5 20 9 85 8 146 l-2 109 33 0 32 0 0 -130 c0 -146 -11 -185
-62 -215 -37 -22 -121 -22 -154 0 -51 33 -59 60 -62 207 l-4 138 36 0 36 0 0
-122z m1912 20 c23 -2 32 -9 34 -25 3 -20 0 -23 -31 -23 l-35 0 0 -68 c0 -70
10 -92 42 -92 13 0 18 -8 18 -25 0 -20 -5 -25 -27 -26 -79 -4 -91 13 -95 124
-2 76 -4 87 -20 87 -13 0 -18 8 -18 25 0 19 5 25 21 25 14 0 19 5 16 13 -7 19
4 34 33 45 23 9 25 7 28 -24 3 -29 7 -33 34 -36z m-1430 -15 c26 -23 38 -77
38 -165 l0 -78 -35 0 -35 0 0 89 c0 68 -4 93 -16 105 -20 21 -43 20 -66 -1
-15 -13 -18 -32 -18 -105 l0 -88 -35 0 -35 0 0 130 0 130 30 0 c19 0 30 -5 30
-14 0 -11 7 -10 36 4 39 20 79 18 106 -7z m641 16 c46 -12 77 -57 77 -111 l0
-38 -85 0 c-68 0 -85 -3 -85 -15 0 -28 47 -48 99 -43 45 5 50 3 54 -18 5 -28
-11 -35 -81 -36 -63 0 -105 22 -126 66 -38 80 0 172 84 199 22 8 22 8 63 -4z
m277 -30 c0 -23 -4 -29 -22 -29 -45 0 -58 -26 -58 -117 l0 -83 -35 0 -35 0 0
130 0 130 30 0 c24 0 30 -4 30 -22 1 -21 1 -21 11 -5 12 21 48 37 67 30 6 -3
12 -18 12 -34z m187 27 c6 -3 9 -14 6 -26 -5 -18 -11 -21 -37 -16 -35 7 -70
-12 -58 -30 4 -7 25 -20 47 -30 102 -48 77 -153 -37 -156 -67 -1 -86 8 -80 37
4 21 8 23 36 18 17 -3 33 -6 36 -5 33 0 40 5 40 22 0 14 -14 26 -46 41 -53 25
-72 57 -58 97 16 46 92 70 151 48z m-937 -126 l0 -130 -35 0 -35 0 0 130 0
130 35 0 35 0 0 -130z m140 43 c14 -46 28 -83 31 -83 3 0 17 36 29 81 24 84
31 93 73 87 l25 -3 -47 -125 c-48 -124 -48 -125 -83 -128 l-34 -3 -44 122
c-25 67 -47 126 -49 131 -2 5 14 8 35 6 l39 -3 25 -82z m940 -43 l0 -130 -35
0 -35 0 0 130 0 130 35 0 35 0 0 -130z m346 46 c15 -47 31 -83 35 -81 4 3 10
17 14 32 3 16 13 52 21 81 15 50 17 52 50 52 19 0 34 -3 34 -7 0 -18 -93 -252
-115 -289 -23 -39 -50 -63 -87 -77 -13 -5 -19 0 -24 19 -5 21 0 31 30 56 20
16 36 36 36 43 0 8 -20 64 -45 125 -25 61 -45 115 -45 120 0 6 15 10 34 10 35
0 35 0 62 -84z m-1702 -314 c11 -18 -6 -50 -24 -45 -11 3 -24 -4 -34 -18 -24
-35 -20 -49 14 -49 25 0 30 -4 30 -25 0 -21 -5 -25 -30 -25 l-30 0 0 -105 0
-105 -30 0 c-16 0 -30 3 -31 8 0 4 -2 45 -4 92 -2 47 -4 91 -4 98 -1 6 -8 12
-16 12 -23 0 -19 47 5 53 12 3 20 14 20 26 0 31 20 68 44 79 26 13 83 15 90 4z
m524 -34 c5 -39 -30 -56 -58 -28 -28 28 -11 63 28 58 21 -2 28 -9 30 -30z
m1047 -3 c0 -26 -3 -30 -29 -30 -36 0 -56 26 -36 50 8 9 24 15 39 13 22 -2 26
-8 26 -33z m-1352 -119 c33 -110 43 -134 48 -115 5 13 24 77 44 142 l37 117
34 0 c19 0 34 -3 34 -8 0 -4 -26 -84 -59 -177 l-59 -170 -39 -3 -40 -3 -56
174 c-32 96 -57 178 -57 181 0 4 16 6 36 4 l37 -3 40 -139z m697 74 c0 -27 3
-30 30 -30 25 0 30 -4 30 -25 0 -21 -5 -25 -30 -25 l-31 0 3 -77 c3 -74 4 -78
28 -83 16 -3 26 -13 28 -27 6 -46 -91 -40 -115 8 -7 13 -13 59 -13 102 0 70
-2 77 -20 77 -14 0 -20 7 -20 21 0 12 8 23 20 26 13 3 20 14 20 28 0 23 13 31
53 34 13 1 17 -7 17 -29z m862 -34 c46 -10 59 -44 64 -155 l4 -101 -29 0 c-16
0 -31 5 -33 10 -2 7 -16 5 -36 -6 -36 -18 -76 -13 -104 13 -25 22 -24 87 1
112 19 19 79 41 114 41 38 0 7 39 -34 41 -13 1 -36 -2 -51 -6 -25 -6 -28 -5
-28 18 0 22 6 27 43 35 23 5 47 7 52 6 6 -1 22 -5 37 -8z m-2023 -21 c82 -70
54 -205 -49 -236 -33 -10 -47 -9 -85 5 -90 35 -110 162 -35 229 25 22 40 27
84 27 44 0 60 -5 85 -25z m771 -105 l0 -130 -35 0 -35 0 0 130 0 130 35 0 35
0 0 -130z m252 125 c3 -3 3 -16 1 -29 -4 -21 -9 -23 -41 -19 -54 7 -92 -25
-92 -78 0 -54 27 -79 85 -79 41 0 45 -2 45 -24 0 -20 -6 -25 -40 -31 -49 -8
-99 7 -131 41 -20 21 -24 36 -24 89 0 54 4 67 25 90 14 15 34 31 45 35 22 10
119 13 127 5z m427 -10 c53 -27 75 -111 47 -178 -35 -85 -159 -99 -221 -26
-47 56 -29 170 33 203 35 19 105 20 141 1z m171 -5 l0 -20 20 20 c11 11 31 20
45 20 21 0 25 -5 25 -30 0 -24 -4 -30 -22 -30 -45 0 -58 -26 -58 -117 l0 -83
-35 0 -35 0 0 130 0 130 30 0 c23 0 30 -4 30 -20z m200 -110 l0 -130 -35 0
-35 0 0 130 0 130 35 0 35 0 0 -130z m-1390 -506 l0 -65 22 15 c35 25 83 20
107 -10 18 -23 21 -41 21 -115 0 -82 -2 -89 -20 -89 -18 0 -20 7 -20 80 0 67
-3 83 -20 100 -11 11 -27 20 -35 20 -8 0 -24 -9 -35 -20 -17 -17 -20 -33 -20
-100 0 -73 -2 -80 -20 -80 -19 0 -20 7 -20 165 0 158 1 165 20 165 18 0 20 -7
20 -66z m447 41 c11 -8 23 -23 25 -33 7 -27 -16 -78 -41 -92 -21 -11 -21 -11
11 -50 18 -22 36 -40 40 -40 3 0 12 19 20 43 15 50 45 59 40 13 -2 -16 -10
-43 -18 -59 -15 -27 -14 -31 5 -51 12 -12 21 -25 21 -29 0 -13 -48 -7 -60 8
-11 13 -15 13 -41 0 -48 -25 -96 -19 -131 15 -26 27 -30 36 -25 68 4 22 17 46
33 60 20 17 24 26 15 35 -6 6 -11 28 -11 48 0 63 66 99 117 64z m429 -1 c99
-47 99 -241 0 -288 -105 -50 -206 19 -206 141 0 122 103 196 206 147z m-1506
-9 c0 -12 -14 -15 -66 -15 l-65 0 3 -47 3 -48 58 -3 c41 -2 57 -7 57 -17 0
-10 -16 -15 -57 -17 l-58 -3 -3 -52 -3 -53 70 0 c64 0 71 -2 71 -20 0 -19 -7
-20 -90 -20 l-90 0 0 155 0 155 85 0 c69 0 85 -3 85 -15z m490 -40 c0 -20 5
-25 26 -25 19 0 25 -4 22 -17 -2 -11 -12 -18 -26 -17 -21 1 -22 -2 -22 -72 0
-61 3 -75 19 -83 10 -6 21 -7 25 -4 3 3 6 -3 6 -15 0 -18 -6 -22 -29 -22 -49
0 -61 21 -61 110 0 70 -2 79 -20 85 -11 3 -20 13 -20 21 0 8 9 14 20 14 13 0
20 7 20 19 0 17 11 28 33 30 4 1 7 -10 7 -24z m-300 -45 c11 -11 20 -28 21
-37 1 -10 2 -53 3 -95 2 -68 0 -78 -15 -78 -10 0 -19 5 -21 11 -3 9 -9 9 -25
0 -56 -29 -113 -1 -113 55 0 40 33 69 90 78 42 7 52 24 25 46 -10 8 -29 10
-55 6 -31 -5 -40 -3 -40 8 0 32 100 36 130 6z m120 4 c0 -14 2 -14 22 0 32 22
58 20 58 -4 0 -12 -7 -20 -17 -20 -39 0 -53 -29 -53 -112 0 -70 -2 -78 -19
-78 -18 0 -20 9 -23 111 -2 61 -1 113 1 115 11 10 31 3 31 -12z m1478 -5 c2
-13 -6 -16 -43 -15 -55 1 -85 -26 -85 -78 1 -55 47 -90 104 -79 23 5 27 3 24
-13 -2 -13 -13 -20 -37 -22 -83 -8 -131 33 -131 110 0 44 4 54 35 85 31 31 39
34 82 31 34 -2 49 -8 51 -19z m201 -3 c12 -13 24 -40 28 -60 l6 -36 -82 0
c-89 0 -98 -7 -62 -51 16 -20 28 -24 70 -22 36 1 51 -3 51 -12 0 -26 -78 -34
-125 -13 -66 30 -74 141 -14 197 33 30 98 29 128 -3z m211 4 c16 -16 20 -34
21 -97 0 -43 2 -86 4 -95 4 -20 -31 -26 -37 -7 -3 9 -9 9 -25 0 -56 -29 -113
-1 -113 55 0 40 33 69 90 78 42 7 52 24 25 46 -10 8 -29 10 -55 6 -31 -5 -40
-3 -40 8 0 32 100 36 130 6z m120 4 c0 -14 2 -14 22 0 23 17 64 21 93 10 30
-12 45 -60 45 -144 0 -79 -1 -81 -22 -78 -21 3 -23 9 -25 71 0 37 -4 79 -7 92
-8 31 -41 41 -71 21 -23 -15 -25 -22 -25 -101 0 -77 -2 -85 -19 -85 -25 0 -27
8 -23 128 3 80 6 102 18 102 8 0 14 -7 14 -16z m-1810 -404 c36 -19 13 -37
-40 -32 -45 4 -50 2 -61 -21 -15 -33 -2 -51 58 -79 79 -37 96 -96 44 -149 -25
-24 -38 -29 -78 -29 -53 0 -88 17 -75 37 6 9 17 10 38 5 16 -4 35 -7 42 -6 6
1 19 2 27 3 20 1 37 38 30 62 -4 11 -33 33 -64 49 -61 30 -71 43 -71 88 1 48
41 81 98 82 18 0 42 -5 52 -10z m340 -19 c0 -5 -7 -15 -16 -22 -14 -11 -18
-10 -30 6 -19 25 0 49 27 34 10 -5 19 -13 19 -18z m-97 -67 c3 -3 3 -12 0 -20
-4 -10 -15 -13 -37 -9 -66 12 -113 -50 -86 -115 13 -32 62 -53 101 -43 17 5
20 2 17 -13 -2 -14 -13 -20 -42 -22 -80 -7 -126 37 -126 119 0 33 6 47 34 75
29 29 41 34 83 34 27 0 52 -3 56 -6z m87 -109 c0 -108 -1 -115 -20 -115 -19 0
-20 7 -20 115 0 108 1 115 20 115 19 0 20 -7 20 -115z m219 91 c12 -13 24 -40
28 -60 l6 -36 -82 0 c-81 0 -82 0 -76 -22 13 -41 33 -53 85 -52 52 2 78 -19
37 -30 -53 -14 -96 -6 -129 23 -30 27 -33 35 -33 86 0 51 3 59 33 86 42 38 98
40 131 5z m113 13 c3 -9 9 -9 25 0 24 12 62 14 88 5 30 -12 45 -60 45 -144 0
-73 -2 -80 -20 -80 -11 0 -20 3 -21 8 0 4 -1 42 -2 85 -2 65 -6 81 -22 93 -26
19 -41 18 -65 -6 -17 -17 -20 -33 -20 -100 0 -72 -2 -80 -19 -80 -18 0 -20 9
-23 105 -2 58 -1 110 0 115 5 14 29 13 34 -1z m376 -12 c3 -15 -2 -17 -37 -11
-34 5 -43 3 -65 -19 -32 -32 -35 -84 -7 -118 15 -19 28 -23 65 -22 32 1 46 -2
46 -12 0 -25 -65 -34 -114 -15 -77 29 -80 164 -4 207 34 19 112 13 116 -10z
m183 12 c25 -13 48 -65 42 -90 -5 -16 -16 -19 -79 -19 -84 0 -94 -11 -48 -57
22 -22 31 -24 70 -18 35 5 44 3 44 -8 0 -18 -21 -27 -66 -27 -46 0 -93 25
-104 56 -22 57 -3 140 37 163 24 14 79 14 104 0z m213 3 c10 -16 -10 -28 -44
-28 -28 1 -36 -3 -38 -20 -2 -15 5 -24 27 -33 64 -27 84 -79 46 -117 -35 -35
-125 -33 -125 3 0 12 8 14 34 9 18 -4 41 -4 50 0 26 10 19 43 -15 62 -54 30
-61 38 -61 66 0 42 28 66 78 66 24 0 45 -4 48 -8z"/>
<path d="M2018 4252 c-26 -17 -26 -19 -11 -35 9 -9 20 -42 24 -74 6 -47 14
-63 38 -85 33 -29 40 -63 20 -100 -15 -27 -4 -34 24 -15 20 13 26 13 42 1 29
-22 34 -17 24 27 -6 23 -7 44 -4 48 4 3 29 -17 56 -46 l49 -52 0 31 c0 21 8
37 27 51 l27 22 -39 7 c-22 4 -60 7 -84 7 -55 1 -124 33 -139 65 -12 27 8 66
34 66 19 0 18 -10 -3 -26 -44 -32 39 -84 134 -84 67 0 92 14 43 25 -35 8 -38
15 -10 33 32 19 16 29 -46 30 -65 0 -107 24 -112 63 -5 30 -30 59 -51 59 -9 0
-28 -8 -43 -18z m42 -18 c0 -2 -9 -4 -21 -4 -11 0 -18 4 -14 10 5 8 35 3 35
-6z"/>
<path d="M2349 4251 c-22 -18 -23 -20 -7 -38 9 -10 19 -40 23 -68 8 -58 26
-91 55 -100 23 -7 24 -25 6 -77 -15 -42 -6 -49 31 -23 18 13 22 13 33 0 22
-27 30 -16 23 32 l-6 47 32 -23 c17 -13 39 -34 48 -47 20 -32 30 -30 25 4 -3
22 1 30 22 40 14 6 26 16 26 20 0 11 -57 22 -115 22 -50 1 -120 31 -135 60
-13 25 -5 56 17 64 24 10 30 -4 9 -19 -18 -13 -18 -16 -2 -39 9 -14 33 -30 53
-35 47 -14 133 -14 153 -1 12 8 12 10 -5 10 -11 0 -27 4 -35 10 -12 8 -12 11
3 28 9 10 17 21 17 23 0 2 -28 6 -62 7 -70 3 -101 23 -113 70 -14 55 -53 68
-96 33z m36 -11 c3 -5 -1 -10 -10 -10 -9 0 -13 5 -10 10 3 6 8 10 10 10 2 0 7
-4 10 -10z"/>
<path d="M2680 4250 c-23 -18 -24 -20 -7 -32 11 -8 21 -36 27 -73 8 -48 16
-66 41 -88 25 -23 30 -34 27 -60 -3 -18 -8 -40 -13 -49 -9 -23 12 -24 35 -3
15 14 18 14 30 0 25 -30 39 -18 28 25 -6 23 -8 44 -4 47 4 4 29 -15 56 -42
l50 -49 0 29 c0 20 9 36 27 51 l28 22 -70 6 c-108 10 -128 15 -162 36 -25 15
-33 27 -33 49 0 31 22 57 40 46 8 -5 4 -12 -9 -22 -48 -33 35 -83 139 -83 64
0 88 14 40 25 -35 8 -38 15 -9 33 29 18 20 24 -48 28 -66 5 -103 27 -114 68
-16 58 -53 72 -99 36z m43 -17 c-7 -2 -19 -2 -25 0 -7 3 -2 5 12 5 14 0 19 -2
13 -5z"/>
<path d="M1930 3795 l0 -65 102 0 c77 0 99 -3 91 -11 -7 -7 -48 -12 -102 -12
l-91 0 0 -57 0 -57 58 1 c44 1 57 -2 57 -14 0 -12 -13 -15 -55 -15 -52 0 -55
-1 -55 -25 -1 -14 2 -38 5 -55 6 -29 8 -30 60 -30 33 -1 55 -5 58 -13 2 -8
-12 -12 -47 -12 -57 0 -59 -3 -35 -67 16 -40 19 -43 55 -43 28 0 39 -4 39 -15
0 -9 -9 -15 -25 -15 -32 0 -31 -7 6 -63 l31 -47 404 0 404 0 35 48 c41 56 42
62 10 62 -16 0 -25 6 -25 15 0 11 11 15 36 15 30 0 37 4 48 33 32 78 33 77
-23 77 -37 0 -51 4 -51 14 0 10 13 13 51 11 45 -2 52 1 60 22 5 13 9 40 9 60
l0 35 -55 -4 c-38 -2 -55 1 -55 9 0 7 20 13 53 15 l52 3 0 55 0 55 -80 0
c-123 1 -130 19 -10 25 l100 5 0 60 0 60 -557 3 -558 2 0 -65z m520 -30 l30
-16 0 -185 c0 -180 -1 -184 -19 -174 -36 19 -88 11 -154 -24 -73 -38 -108 -49
-131 -40 -14 5 -16 33 -16 200 l0 194 40 0 c26 0 61 11 97 30 62 33 109 38
153 15z m236 -16 c36 -20 73 -32 96 -32 l38 0 -1 -141 c-1 -77 -4 -166 -7
-196 -7 -54 -8 -55 -38 -53 -17 2 -61 18 -98 38 -69 36 -121 44 -157 25 -18
-10 -19 -6 -19 174 l0 185 28 15 c43 24 93 19 158 -15z m219 -184 c-9 -175
-17 -310 -19 -312 -9 -10 -187 -13 -243 -4 -114 20 -177 74 -131 114 33 28 86
21 176 -24 121 -60 157 -47 151 57 -1 21 -1 101 0 177 l1 139 35 -29 34 -28
-4 -90z m-764 -27 c2 -233 1 -219 27 -229 31 -12 61 -4 139 37 99 52 185 42
169 -20 -14 -57 -142 -94 -290 -82 -45 3 -84 6 -88 6 -3 0 -9 48 -12 108 -20
330 -21 292 11 318 15 13 31 23 36 24 4 0 8 -73 8 -162z m389 -269 c34 -29 34
-31 16 -45 -26 -19 -86 -18 -115 2 l-23 16 30 18 c16 10 33 23 36 29 10 16 17
13 56 -20z"/>
<path d="M2116 3141 c5 -5 33 -30 63 -55 l55 -46 252 0 253 0 60 50 c34 28 61
53 61 55 0 3 -170 5 -377 5 -224 0 -373 -4 -367 -9z"/>
<path d="M2313 2999 c40 -23 133 -49 177 -49 44 0 137 26 177 49 13 7 -38 10
-177 10 -139 0 -190 -3 -177 -10z"/>
<path d="M2467 2482 c-30 -32 -21 -42 38 -42 59 0 63 4 39 38 -18 27 -55 29
-77 4z"/>
<path d="M3555 1894 c-5 -1 -22 -5 -36 -8 -32 -7 -43 -30 -29 -57 14 -24 42
-24 64 0 18 20 19 70 1 65z"/>
<path d="M1413 1945 c-14 -29 -15 -40 -4 -75 15 -52 49 -70 84 -47 32 21 42
75 23 121 -13 32 -19 36 -51 36 -31 0 -38 -5 -52 -35z"/>
<path d="M2896 1967 c-36 -32 -39 -104 -6 -137 26 -26 46 -25 75 5 63 63 -4
191 -69 132z"/>
<path d="M2354 1406 c-3 -8 -4 -27 -2 -43 4 -37 37 -38 57 -1 13 22 13 29 2
42 -17 20 -50 21 -57 2z"/>
<path d="M2326 1258 c-21 -29 -20 -40 5 -72 22 -29 55 -33 84 -12 17 12 16 16
-20 60 -22 25 -43 46 -47 46 -4 0 -14 -10 -22 -22z"/>
<path d="M2732 1390 c-12 -11 -26 -37 -32 -59 -27 -101 42 -193 121 -161 37
16 55 42 64 93 9 45 -17 122 -45 137 -31 17 -85 12 -108 -10z"/>
<path d="M1472 1243 c-30 -6 -50 -47 -32 -68 29 -34 80 -5 80 46 0 29 -3 31
-48 22z"/>
<path d="M3238 1318 c-8 -7 -18 -21 -21 -30 -6 -16 1 -18 48 -18 46 0 55 3 55
18 0 38 -49 56 -82 30z"/>
<path d="M3480 1237 c-37 -13 -49 -39 -30 -62 28 -34 80 -2 80 48 0 30 -1 31
-50 14z"/>
<path d="M2314 822 c-6 -4 -16 -17 -23 -29 -12 -23 -11 -23 49 -23 33 0 60 3
60 8 0 4 -7 18 -16 30 -15 22 -49 29 -70 14z"/>
<path d="M2986 808 c-24 -34 -20 -38 39 -38 57 0 63 6 45 41 -15 27 -64 25
-84 -3z"/>
</g>
</svg>
